<svg xmlns="http://www.w3.org/2000/svg" viewBox="0 0 720 760" role="img" aria-labelledby="title desc">
<title id="title">Accelerating innovations through code</title>
<desc id="desc">Eisenberg Family Depression Center open source research and automation code at the University of Michigan, with a glowing brain illustration.</desc>
<defs>
<linearGradient id="bg" x1="0" y1="0" x2="1" y2="1"><stop offset="0" stop-color="#00162F"/><stop offset="0.55" stop-color="#00274C"/><stop offset="1" stop-color="#0A3D73"/></linearGradient>
<radialGradient id="halo" cx="78%" cy="24%" r="44%"><stop offset="0" stop-color="#2CA7F8" stop-opacity=".35"/><stop offset="1" stop-color="#2CA7F8" stop-opacity="0"/></radialGradient>
<filter id="softGlow" x="-30%" y="-30%" width="160%" height="160%"><feGaussianBlur stdDeviation="8" result="blur"/><feMerge><feMergeNode in="blur"/><feMergeNode in="SourceGraphic"/></feMerge></filter>
</defs>
<rect width="720" height="760" rx="20" fill="url(#bg)"/><rect width="720" height="760" rx="20" fill="url(#halo)"/>
<g opacity=".16" fill="none" stroke="#C5D3DF"><path d="M0 88H720"/><path d="M0 166H720"/><path d="M0 244H720"/><path d="M0 322H720"/><path d="M0 400H720"/><path d="M0 478H720"/><path d="M0 556H720"/><path d="M0 634H720"/></g>
<g transform="translate(42 38)">
<rect x="0" y="4" width="46" height="46" rx="6" fill="#FFCB05"/><text x="12" y="38" fill="#00274C" font-family="Arial Black, Arial, Helvetica, sans-serif" font-size="30" font-weight="900">M</text>
<text x="60" y="22" fill="#FFFFFF" font-family="Arial, Helvetica, sans-serif" font-size="14" font-weight="700" letter-spacing="1.3">EISENBERG FAMILY</text>
<text x="60" y="45" fill="#FFFFFF" font-family="Arial, Helvetica, sans-serif" font-size="20" font-weight="700">DEPRESSION CENTER</text>
<text x="60" y="64" fill="#C8D7E6" font-family="Arial, Helvetica, sans-serif" font-size="12" font-weight="700" letter-spacing="1.1">UNIVERSITY OF MICHIGAN</text>
</g>
<g transform="translate(316 34)">
<path d="M82 26C56 30 34 45 21 68C-2 80 -19 102 -27 127C-38 163 -31 202 -9 231C7 254 31 271 59 279C67 302 82 322 103 335C124 349 150 353 174 347C194 374 224 391 257 392C287 393 316 381 336 360C354 367 374 370 394 366C438 359 476 331 491 290C506 247 498 199 470 164C473 135 464 106 444 84C421 59 389 42 355 38C336 19 311 8 285 4C251 0 216 9 189 28C173 24 156 23 140 26C123 28 100 30 82 26Z" fill="#0F2540" stroke="#74C0F8" stroke-opacity=".62" stroke-width="3"/>
<path d="M178 283C171 314 176 344 194 367C212 389 238 401 267 403C296 404 322 390 337 368C352 346 355 318 346 291C341 277 333 265 329 251C324 230 327 212 338 195C347 181 360 172 376 166" fill="none" stroke="#74C0F8" stroke-opacity=".5" stroke-width="3"/>
<g fill="none" stroke="#7CC9FF" stroke-width="2.4" stroke-linecap="round" opacity=".72"><path d="M54 93C89 68 133 56 177 59C228 64 278 94 312 139C335 169 348 206 351 240"/><path d="M27 153C64 133 108 121 154 121C214 121 272 145 309 189C333 216 347 247 352 279"/><path d="M25 207C69 194 112 194 154 202C219 214 269 254 292 311"/><path d="M93 66C92 106 105 142 132 171C161 201 199 220 240 226C275 231 309 224 338 208"/><path d="M125 47C149 72 179 92 214 105C257 120 304 126 343 119"/><path d="M94 260C122 240 155 231 191 231C238 230 282 248 311 283"/><path d="M66 297C104 286 141 287 178 299C215 312 247 335 271 364"/></g>
<g fill="none" stroke="#FFCB05" stroke-width="1.8" stroke-linecap="round" opacity=".72"><path d="M68 127L121 82L173 102L230 80L292 121L273 179L325 214"/><path d="M36 189L95 162L148 197L213 194L258 243L242 296L286 332"/><path d="M133 45L193 73L251 58L314 90"/><path d="M150 336L197 319L249 337L284 304L327 272"/></g>
<g fill="#FFFFFF" opacity=".96"><circle cx="68" cy="127" r="5"/><circle cx="121" cy="82" r="4.5"/><circle cx="173" cy="102" r="5"/><circle cx="230" cy="80" r="4.5"/><circle cx="292" cy="121" r="5"/><circle cx="273" cy="179" r="4.5"/><circle cx="325" cy="214" r="5"/><circle cx="36" cy="189" r="4.5"/><circle cx="95" cy="162" r="5"/><circle cx="148" cy="197" r="4.5"/><circle cx="213" cy="194" r="5"/><circle cx="258" cy="243" r="4.5"/><circle cx="242" cy="296" r="5"/><circle cx="286" cy="332" r="4.5"/><circle cx="133" cy="45" r="5"/><circle cx="193" cy="73" r="4.5"/><circle cx="251" cy="58" r="5"/><circle cx="314" cy="90" r="4.5"/><circle cx="150" cy="336" r="5"/><circle cx="197" cy="319" r="4.5"/><circle cx="249" cy="337" r="5"/><circle cx="284" cy="304" r="4.5"/><circle cx="327" cy="272" r="5"/></g>
<g fill="#FFCB05" filter="url(#softGlow)"><circle cx="68" cy="127" r="3.2"/><circle cx="173" cy="102" r="3.2"/><circle cx="292" cy="121" r="3.2"/><circle cx="148" cy="197" r="3.2"/><circle cx="258" cy="243" r="3.2"/><circle cx="242" cy="296" r="3.2"/><circle cx="251" cy="58" r="3.2"/><circle cx="197" cy="319" r="3.2"/><circle cx="327" cy="272" r="3.2"/></g>
</g>
<g transform="translate(42 470)">
<text x="0" y="0" fill="#FFFFFF" font-family="Arial, Helvetica, sans-serif" font-size="38" font-weight="700">Accelerating</text>
<text x="0" y="46" fill="#FFCB05" font-family="Arial, Helvetica, sans-serif" font-size="38" font-weight="700">innovations</text>
<text x="230" y="46" fill="#FFFFFF" font-family="Arial, Helvetica, sans-serif" font-size="38" font-weight="700">through code</text>
<text x="0" y="92" fill="#FFFFFF" font-family="Arial, Helvetica, sans-serif" font-size="38" font-weight="700">to improve mental health</text>
<text x="0" y="138" fill="#FFFFFF" font-family="Arial, Helvetica, sans-serif" font-size="38" font-weight="700">outcomes across our</text>
<text x="0" y="184" fill="#FFFFFF" font-family="Arial, Helvetica, sans-serif" font-size="38" font-weight="700">communities.</text>
<text x="0" y="236" fill="#F0F4F8" font-family="Arial, Helvetica, sans-serif" font-size="18">Open source software, automations, analytical workflows, data</text>
<text x="0" y="263" fill="#F0F4F8" font-family="Arial, Helvetica, sans-serif" font-size="18">tools, and mobile technology resources for research teams.</text>
</g>
</svg>
